<mxfile host="app.diagrams.net" modified="2023-11-22T02:13:36.827Z" agent="Mozilla/5.0 (Macintosh; Intel Mac OS X 10_15_7) AppleWebKit/537.36 (KHTML, like Gecko) Chrome/119.0.0.0 Safari/537.36" etag="VlILGyLOIV2Nx4A8yX5X" version="22.1.3" type="github">
  <diagram name="第 1 页" id="TFkyCCmXIhcKNt-2Raay">
    <mxGraphModel dx="1026" dy="601" grid="1" gridSize="10" guides="1" tooltips="1" connect="1" arrows="1" fold="1" page="1" pageScale="1" pageWidth="1169" pageHeight="827" math="0" shadow="0">
      <root>
        <mxCell id="0" />
        <mxCell id="1" parent="0" />
        <mxCell id="gg39BBJmfK9Wzds0mS3H-1" value="3.&amp;nbsp;模型多样性辅助的&lt;br&gt;自动调制分类模型" style="rounded=1;whiteSpace=wrap;html=1;fontFamily=Times New Roman;fontSize=16;" vertex="1" parent="1">
          <mxGeometry x="680" y="260" width="200" height="60" as="geometry" />
        </mxCell>
        <mxCell id="gg39BBJmfK9Wzds0mS3H-2" value="2. 云原生环境下信息年龄驱动的容器调度框架" style="rounded=1;whiteSpace=wrap;html=1;fontFamily=Times New Roman;fontSize=16;" vertex="1" parent="1">
          <mxGeometry x="465" y="250" width="200" height="60" as="geometry" />
        </mxCell>
        <mxCell id="gg39BBJmfK9Wzds0mS3H-3" value="1. 最小化共同驻留的&lt;br&gt;虚拟机热迁移算法" style="rounded=1;whiteSpace=wrap;html=1;fontFamily=Times New Roman;fontSize=16;" vertex="1" parent="1">
          <mxGeometry x="410" y="140" width="200" height="60" as="geometry" />
        </mxCell>
        <mxCell id="gg39BBJmfK9Wzds0mS3H-4" value="4.&amp;nbsp;内生安全增强的&lt;br&gt;分层网络流量入侵检测系统" style="rounded=1;whiteSpace=wrap;html=1;fontFamily=Times New Roman;fontSize=16;" vertex="1" parent="1">
          <mxGeometry x="350" y="350" width="200" height="60" as="geometry" />
        </mxCell>
      </root>
    </mxGraphModel>
  </diagram>
</mxfile>
